PathFileType	4	(X/Y/Z)	/Users/itak/Documents/Research/Walk-IL/dataset/trc/00136_00007.trc
DataRate	CameraRate	NumFrames	NumMarkers	Units	OrigDataRate	OrigDataStartFrame	OrigNumFrames
100.000000	100.000000	4	53	mm	100.000000	185	740
Frame#	Time	RPSI			LPSI			L3			STRN			T10			C7			CLAV			RBAK			LBAK			LSHO			LUPA			LAEL			LAOL			LWTS			LWPS			LFRA			LIFD			LHPS			LHTS			RSHO			RUPA			RAEL			RAOL			RWTS			RWPS			RFRA			RIFD			RHTS			RHPS			RBHD			LFHD			RFHD			LBHD			LHIP			RHIP			RASI			LASI			LKNE			LTHI			LANK			LTIP			LTOE			LMT1			LMT5			LHEE			RKNE			RTHI			RANK			RTIP			RTOE			RMT1			RMT5			RHEE			
		X1	Y1	Z1	X2	Y2	Z2	X3	Y3	Z3	X4	Y4	Z4	X5	Y5	Z5	X6	Y6	Z6	X7	Y7	Z7	X8	Y8	Z8	X9	Y9	Z9	X10	Y10	Z10	X11	Y11	Z11	X12	Y12	Z12	X13	Y13	Z13	X14	Y14	Z14	X15	Y15	Z15	X16	Y16	Z16	X17	Y17	Z17	X18	Y18	Z18	X19	Y19	Z19	X20	Y20	Z20	X21	Y21	Z21	X22	Y22	Z22	X23	Y23	Z23	X24	Y24	Z24	X25	Y25	Z25	X26	Y26	Z26	X27	Y27	Z27	X28	Y28	Z28	X29	Y29	Z29	X30	Y30	Z30	X31	Y31	Z31	X32	Y32	Z32	X33	Y33	Z33	X34	Y34	Z34	X35	Y35	Z35	X36	Y36	Z36	X37	Y37	Z37	X38	Y38	Z38	X39	Y39	Z39	X40	Y40	Z40	X41	Y41	Z41	X42	Y42	Z42	X43	Y43	Z43	X44	Y44	Z44	X45	Y45	Z45	X46	Y46	Z46	X47	Y47	Z47	X48	Y48	Z48	X49	Y49	Z49	X50	Y50	Z50	X51	Y51	Z51	X52	Y52	Z52	X53	Y53	Z53	

186	1.85	-552.9014892578125	1088.480346679688	967.6265258789062	-652.569091796875	1098.20263671875	1055.948608398438	-597.9087524414062	1125.1650390625	1016.940307617188	-732.5003662109375	1328.292846679688	846.0341796875	-564.5523681640625	1274.114013671875	1029.531860351562	-582.8583374023438	1567.797729492188	1014.472106933594	-707.3063354492188	1462.774658203125	875.235595703125	-488.6683349609375	1380.0166015625	995.3526000976562	-652.7322387695312	1551.351440429688	1088.7109375	-761.8418579101562	1542.465209960938	1073.495727539062	-801.3619384765625	1416.29736328125	1145.06640625	-833.2708129882812	1201.10595703125	1170.781860351562	-747.0719604492188	1182.739135742188	1170.339233398438	-900.6146240234375	942.0530395507812	1090.5654296875	-852.6676635742188	915.9466552734375	1161.251220703125	-855.1705322265625	1085.742065429688	1171.0625	-901.12255859375	746.2243041992188	1072.86669921875	-878.7268676757812	841.652587890625	1149.125732421875	-921.707763671875	852.6766357421875	1096.336181640625	-490.4193115234375	1543.452880859375	850.4098510742188	-432.5205688476562	1468.626342773438	818.57666015625	-419.0054321289062	1173.601806640625	804.3394775390625	-482.309326171875	1171.949462890625	877.2565307617188	-541.3518676757812	941.8936767578125	697.0060424804688	-466.4473266601562	919.7427978515625	728.8387451171875	-426.2545166015625	1101.8134765625	772.7523193359375	-582.5169677734375	751.3325805664062	684.03515625	-563.9705200195312	836.1127319335938	665.9115600585938	-495.1415710449219	823.1112670898438	693.9589233398438	-553.705810546875	1740.211181640625	938.4382934570312	-741.8746948242188	1799.6142578125	838.7323608398438	-624.7680053710938	1789.696166992188	782.5997924804688	-670.7757568359375	1754.4404296875	1004.170349121094	-806.846923828125	1021.354797363281	1053.753540039062	-541.8169555664062	983.0381469726562	800.3444213867188	-633.7611083984375	1058.506713867188	764.067138671875	-833.361328125	1081.859130859375	942.3303833007812	-943.30517578125	561.2589721679688	894.3981323242188	-906.7333984375	686.1160888671875	972.3484497070312	-1023.538391113281	41.34265899658203	887.74853515625	-979.9083862304688	300.4878845214844	941.4094848632812	-1062.701538085938	86.99076843261719	666.0548095703125	-999.7398071289062	70.27024841308594	718.8599243164062	-1092.897338867188	58.01082611083984	786.3569946289062	-938.3619384765625	29.54837417602539	923.8914794921875	-562.77783203125	496.4898376464844	916.395263671875	-565.051513671875	768.9197387695312	826.2083740234375	-360.4539794921875	73.86691284179688	1160.70166015625	-505.2869873046875	375.6137084960938	968.9247436523438	-583.6428833007812	39.07102203369141	1085.401733398438	-548.4096069335938	40.97518920898438	1151.028442382812	-460.4717712402344	46.95488357543945	1073.210815429688	-337.6852722167969	98.70957183837891	1228.634643554688	
187	1.86	-563.1472778320312	1088.360595703125	962.4324951171875	-663.7680053710938	1098.5263671875	1049.444091796875	-608.2814331054688	1125.275512695312	1011.258056640625	-741.1099243164062	1328.884155273438	839.3304443359375	-575.1788330078125	1274.143676757812	1024.798706054688	-592.7490844726562	1567.850219726562	1009.828369140625	-715.9568481445312	1463.28125	869.0670776367188	-498.9040222167969	1379.889770507812	991.5667724609375	-663.5353393554688	1551.504150390625	1083.268310546875	-772.4942626953125	1542.869384765625	1066.93896484375	-812.7689208984375	1416.634521484375	1138.074951171875	-844.6055908203125	1201.303100585938	1163.329345703125	-758.122802734375	1183.12548828125	1163.750366210938	-910.0833129882812	941.79052734375	1082.896606445312	-862.795654296875	916.0799560546875	1154.181884765625	-866.099609375	1085.825561523438	1163.533569335938	-909.4927368164062	745.8606567382812	1065.7578125	-888.436279296875	841.631103515625	1141.999389648438	-930.9705810546875	852.3888549804688	1088.546630859375	-498.5542602539062	1543.409545898438	846.9336547851562	-440.1898498535156	1468.735961914062	815.8862915039062	-424.7715148925781	1174.021606445312	803.1538696289062	-489.4432983398438	1172.166748046875	874.8137817382812	-542.4655151367188	940.2928466796875	695.1360473632812	-468.0601196289062	919.2392578125	728.5682983398438	-430.7659606933594	1102.062377929688	771.8541259765625	-581.0306396484375	749.1044311523438	682.93505859375	-563.2207641601562	833.9490356445312	664.4595336914062	-494.7767639160156	822.0602416992188	693.8721313476562	-562.2008056640625	1740.441650390625	934.1852416992188	-748.9682006835938	1800.116088867188	831.8560791015625	-631.1831665039062	1789.872924804688	777.3677978515625	-680.1347045898438	1755.018310546875	998.4794921875	-817.91064453125	1022.148376464844	1045.782348632812	-550.6370239257812	982.7408447265625	795.295166015625	-642.0098876953125	1058.6865234375	758.1416625976562	-843.3671264648438	1082.557983398438	934.2882080078125	-949.7417602539062	560.8576049804688	884.1240234375	-915.161865234375	686.3956298828125	961.9232177734375	-1024.628662109375	40.18020248413086	885.2972412109375	-985.1013793945312	300.1295776367188	933.77978515625	-1059.853393554688	77.06295776367188	660.695556640625	-997.7966918945312	63.52170181274414	715.6007080078125	-1092.33056640625	53.27630233764648	781.9011840820312	-940.041015625	30.80450248718262	923.3687133789062	-572.6625366210938	495.2855529785156	908.1578979492188	-574.2505493164062	768.4454956054688	819.999755859375	-362.1769409179688	79.52037048339844	1158.994018554688	-512.513427734375	376.235595703125	962.5447387695312	-583.8936157226562	38.944580078125	1085.205932617188	-548.8475341796875	42.01000595092773	1150.4912109375	-461.1312255859375	47.01699829101562	1072.604248046875	-340.5963439941406	106.9567108154297	1226.302978515625	
188	1.87	-573.190673828125	1088.392944335938	957.1261596679688	-674.9522705078125	1099.090942382812	1042.762329101562	-618.46875	1125.58642578125	1005.433044433594	-749.6790161132812	1329.675903320312	832.4814453125	-585.7003784179688	1274.380493164062	1020.068603515625	-602.6972045898438	1568.10498046875	1005.093200683594	-724.5697021484375	1463.99072265625	862.7614135742188	-509.182373046875	1379.961059570312	987.7005615234375	-674.3988037109375	1551.85302734375	1077.698852539062	-783.18310546875	1543.451538085938	1060.223022460938	-824.2359008789062	1417.156982421875	1130.8994140625	-856.0260620117188	1201.693481445312	1155.655395507812	-769.2225341796875	1183.708984375	1157.041259765625	-919.49365234375	941.7299194335938	1074.966796875	-873.029052734375	916.4041137695312	1146.915283203125	-877.1226196289062	1086.108032226562	1155.77587890625	-917.8094482421875	745.6929321289062	1058.425048828125	-898.2156372070312	841.81884765625	1134.657470703125	-940.2909545898438	852.290283203125	1080.357666015625	-506.6824340820312	1543.559448242188	843.4371337890625	-447.8501892089844	1469.056030273438	813.2666625976562	-430.5431213378906	1174.664794921875	802.1558837890625	-496.6222534179688	1172.620361328125	872.443115234375	-543.490234375	939.0098266601562	693.4110107421875	-469.6549682617188	919.0388793945312	728.5025024414062	-435.3010864257812	1102.549194335938	771.178955078125	-579.49609375	747.2421875	681.9055786132812	-562.3404541015625	832.1560668945312	663.1204833984375	-494.4589538574219	821.34521484375	693.9961547851562	-570.7146606445312	1740.871704101562	929.8754272460938	-755.9849853515625	1800.816162109375	824.912353515625	-637.5380249023438	1790.224853515625	772.0862426757812	-689.4679565429688	1755.850952148438	992.6661987304688	-828.7999877929688	1023.314819335938	1037.704956054688	-559.5531616210938	982.5164184570312	790.1025390625	-650.1834716796875	1058.993896484375	752.2001342773438	-853.2780151367188	1083.489501953125	926.1357421875	-956.0120849609375	560.6762084960938	874.0025024414062	-923.7288818359375	687.0626220703125	951.6547241210938	-1025.92041015625	39.28890228271484	883.2669677734375	-990.9029541015625	300.1304626464844	926.4341430664062	-1057.173217773438	67.766357421875	656.029541015625	-996.0891723632812	57.46927261352539	712.9649047851562	-1092.0927734375	49.13095474243164	778.0074462890625	-941.9720458984375	32.21474075317383	923.2064819335938	-583.2115478515625	494.0035400390625	899.0713500976562	-583.67626953125	768.0042114257812	813.5346069335938	-364.4331970214844	85.89517974853516	1156.941284179688	-520.421875	376.9871215820312	955.4140014648438	-584.0182495117188	38.83388900756836	1085.038818359375	-549.445068359375	43.16364288330078	1149.968017578125	-461.9046020507812	47.0828857421875	1072.060791015625	-344.3800354003906	116.1333389282227	1223.434692382812	
189	1.88	-582.9619140625	1088.564331054688	951.7804565429688	-686.0318603515625	1099.915283203125	1035.976806640625	-628.431640625	1126.096313476562	999.5325317382812	-758.1461181640625	1330.638427734375	825.4974975585938	-596.0712890625	1274.82666015625	1015.360534667969	-612.6781005859375	1568.560791015625	1000.2509765625	-733.1055297851562	1464.87451171875	856.3185424804688	-519.4488525390625	1380.24658203125	983.7467651367188	-685.2999877929688	1552.398315429688	1071.986083984375	-793.8859252929688	1544.213623046875	1053.321899414062	-835.7530517578125	1417.876586914062	1123.509765625	-867.5338745117188	1202.290893554688	1147.7294921875	-780.394775390625	1184.501342773438	1150.2099609375	-928.8313598632812	941.8705444335938	1066.7568359375	-883.3787231445312	916.9339599609375	1139.442138671875	-888.2415771484375	1086.607177734375	1147.767700195312	-926.0713500976562	745.726318359375	1050.879150390625	-908.066162109375	842.235595703125	1127.088500976562	-949.6152954101562	852.368896484375	1071.79541015625	-514.794921875	1543.916748046875	839.8906860351562	-455.503173828125	1469.591430664062	810.6799926757812	-436.3173522949219	1175.548583984375	801.3446044921875	-503.8381042480469	1173.335205078125	870.1334838867188	-544.436279296875	938.0593872070312	691.82275390625	-471.2749328613281	919.1421508789062	728.6641845703125	-439.8637390136719	1103.280517578125	770.7286987304688	-577.951171875	745.7626953125	680.9398803710938	-561.3486328125	830.7489624023438	661.8910522460938	-494.2304077148438	820.96435546875	694.3466796875	-579.2318725585938	1741.469970703125	925.5009765625	-762.9222412109375	1801.70849609375	817.9229125976562	-643.8265991210938	1790.761840820312	766.7642822265625	-698.7518920898438	1756.893310546875	986.7100219726562	-839.4776000976562	1024.824951171875	1029.549682617188	-568.467529296875	982.355712890625	784.859619140625	-658.1620483398438	1059.404541015625	746.3212280273438	-863.0248413085938	1084.628662109375	917.8842163085938	-962.174072265625	560.6675415039062	864.199462890625	-932.3876953125	688.074951171875	941.6361083984375	-1027.3271484375	38.61464691162109	881.6646728515625	-997.2098999023438	300.3905944824219	919.4673461914062	-1055.0185546875	59.56574249267578	652.2097778320312	-994.8396606445312	52.41136932373047	710.9448852539062	-1092.2900390625	45.69879150390625	774.843017578125	-944.0050048828125	33.59976959228516	923.2723999023438	-594.4491577148438	492.6572265625	889.0743408203125	-593.266845703125	767.6007690429688	806.8204956054688	-367.342529296875	93.02607727050781	1154.459350585938	-529.1299438476562	377.84033203125	947.4292602539062	-583.9901123046875	38.73960494995117	1084.876098632812	-550.2496948242188	44.44488525390625	1149.4580078125	-462.8159790039062	47.17996978759766	1071.590209960938	-349.1982727050781	126.2580413818359	1219.905883789062	
